# xmcd CD database file
#
# Track frame offsets:
#	150
#	22966
#	51270
#	92206
#	104550
#	134559
#	153413
#	178316
#	191489
#	221480
#	247094
#	273746
#
# Disc length: 3955 seconds
#
# Revision: 0
# Processed by: cddbd v1.5.2PL0 Copyright (c) Steve Scherf et al.
# Submitted via: CDex 1.51
#
DISCID=b80f710c
DTITLE=Pippo Matin - Joe Zawinul tribute
DYEAR=2009
DGENRE=Jazz
TTITLE0=Duet for Joe
TTITLE1=Young and fine
TTITLE2=Db waltz
TTITLE3=Just Mary
TTITLE4=Orient Express
TTITLE5=Can it be done
TTITLE6=So alone
TTITLE7=Jzzy
TTITLE8=Traveller's song
TTITLE9=Ballad for Joe
TTITLE10=Fast city
TTITLE11=Pepe
EXTD=YEAR: 2009
EXTT0=
EXTT1=
EXTT2=
EXTT3=
EXTT4=
EXTT5=
EXTT6=
EXTT7=
EXTT8=
EXTT9=
EXTT10=
EXTT11=
PLAYORDER=
